# AST/ASF file generated using VICON BodyLanguage
# -----------------------------------------------
:version 1.10
:name VICON
:units
  mass 1.0
  length 0.45
  angle deg
:documentation
   .ast/.asf automatically generated from VICON data using
   VICON BodyBuilder and BodyLanguage model FoxedUp or BRILLIANT.MOD
:root
   order TX TY TZ RX RY RZ
   axis XYZ
   position 0 0 0  
   orientation 0 0 0 
:bonedata
  begin
     id 1 
     name lhipjoint
     direction 0.598477 -0.721498 0.348234 
     length 2.38516 
     axis 0 0 0  XYZ
  end
  begin
     id 2 
     name lfemur
     direction 0.34202 -0.939693 0  
     length 6.81097  
     axis 0 0 20  XYZ
    dof rx ry rz
    limits (-160.0 20.0)
           (-70.0 70.0)
           (-60.0 70.0)
  end
  begin
     id 3 
     name ltibia
     direction 0.34202 -0.939693 0   
     length 7.43697   
     axis 0 0 20   XYZ
    dof rx
    limits (-10.0 170.0)
  end
  begin
     id 4 
     name lfoot
     direction 0.0644912 -0.177188 0.982062   
     length 2.0384   
     axis -90 7.62852e-016 20   XYZ
    dof rx rz
    limits (-45.0 90.0)
           (-70.0 20.0)
  end
  begin
     id 5 
     name ltoes
     direction 1.53517e-011 -4.21905e-011 1   
     length 1.02854   
     axis -90 7.62852e-016 20   XYZ
    dof rx
    limits (-90.0 20.0)
  end
  begin
     id 6 
     name rhipjoint
     direction -0.591517 -0.726138 0.350474   
     length 2.36992  
     axis 0 0 0  XYZ 
  end
  begin
     id 7 
     name rfemur
     direction -0.34202 -0.939693 0   
     length 6.93503   
     axis 0 0 -20   XYZ
    dof rx ry rz
    limits (-160.0 20.0)
           (-70.0 70.0)
           (-70.0 60.0)
  end
  begin
     id 8 
     name rtibia
     direction -0.34202 -0.939693 0   
     length 7.45107   
     axis 0 0 -20   XYZ
    dof rx
    limits (-10.0 170.0)
 end
 begin
     id 9 
     name rfoot
     direction -0.0677555 -0.186157 0.980181   
     length 1.90244  
     axis -90 -7.62852e-016 -20   XYZ
    dof rx rz
    limits (-45.0 90.0)
           (-20.0 70.0)
  end
  begin
     id 10 
     name rtoes
     direction -1.53409e-011 -4.21428e-011 1   
     length 0.961454   
     axis -90 -7.62852e-016 -20   XYZ
    dof rx
    limits (-90.0 20.0)
  end
  begin
     id 11 
     name lowerback
     direction -0.0289484 0.992437 0.119291   
     length 1.96261   
     axis 0 0 0   XYZ
    dof rx ry rz
    limits (-20.0 45.0)
           (-30.0 30.0)
           (-30.0 30.0)
  end
  begin
     id 12 
     name upperback
     direction 0.0109352 0.999834 0.0146028   
     length 1.96894   
     axis 0 0 0   XYZ
    dof rx ry rz
    limits (-20.0 45.0)
           (-30.0 30.0)
           (-30.0 30.0)
  end
  begin
     id 13 
     name thorax
     direction 0.0232227 0.998895 -0.0408582   
     length 2.00029   
     axis 0 0 0   XYZ
    dof rx ry rz
    limits (-20.0 45.0)
           (-30.0 30.0)
           (-30.0 30.0)
  end
  begin
     id 14 
     name lowerneck
     direction -0.00291659 0.999583 0.0287188   
     length 1.72722   
     axis 0 0 0   XYZ
    dof rx ry rz
    limits (-20.0 45.0)
           (-30.0 30.0)
           (-30.0 30.0)
  end
  begin
     id 15 
     name upperneck
     direction 0.0277639 0.998467 -0.0478817   
     length 1.68525   
     axis 0 0 0   XYZ
    dof rx ry rz
    limits (-20.0 45.0)
           (-30.0 30.0)
           (-30.0 30.0)
  end
  begin
     id 16
     name head
     direction 0.00895921 0.999741 -0.020943  
     length 1.78934  
     axis 0 0 0   XYZ
    dof rx ry rz
    limits (-20.0 45.0)
           (-30.0 30.0)
           (-30.0 30.0)
  end
  begin
     id 17 
     name lclavicle
     direction 0.907972 0.393865 -0.143029  
     length 3.37543  
     axis 0 0 0   XYZ
    dof ry rz
    limits (-20.0 10.0)
           (0.0 20.0)
  end
  begin
     id 18 
     name lhumerus
     direction 1 -4.48915e-011 -1.10425e-027   
     length 4.94762   
     axis -180 -30 -90   XYZ
    dof rx ry rz
    limits (-60.0 90.0)
           (-90.0 90.0)
           (-90.0 90.0)
  end
  begin
     id 19
     name lradius
     direction 1 1.63657e-005 -9.44877e-006   
     length 3.11144   
     axis -180 -30 -90   XYZ
    dof rx
    limits (-10.0 170.0)
  end
  begin
     id 20
     name lwrist
     direction 1 -5.04565e-007 -1.8883e-005   
     length 1.55572   
     axis 1.22104e-015 90 90   XYZ
    dof ry
    limits (-180.0 0.0)
 end
  begin
     id 21 
     name lhand
     direction 1 -4.48949e-011 -2.20333e-027   
     length 0.686387   
     axis 1.40591e-015 90 90   XYZ
    dof rx rz
    limits (-90.0 90.0)
           (-45.0 45.0)
  end
  begin
     id 22 
     name lfingers
     direction 1 -4.49191e-011 -4.40665e-027   
     length 0.553383   
     axis 2.81182e-015 90 90   XYZ
    dof rx
    limits (0.0 90.0)
  end
  begin
     id 23
     name lthumb
     direction 0.707107 -6.35116e-011 0.707107   
     length 0.79455   
     axis -90 45 2.85299e-015   XYZ
    dof rx rz
    limits (-45.0 45.0)
           (-45.0 45.0)
  end
  begin
     id 24 
     name rclavicle
     direction -0.947168 0.319303 -0.0302977   
     length 3.53547  
     axis 0 0 0   XYZ 
    dof ry rz
    limits (-10.0 20.0)
           (-20.0 0.0)
  end
  begin
     id 25 
     name rhumerus
     direction -1 -0.000401632 0.000196042  
     length 4.77566   
     axis -180 30 90   XYZ
    dof rx ry rz
    limits (-90.0 60.0)
           (-90.0 90.0)
           (-90.0 90.0)
  end
  begin
     id 26 
     name rradius
     direction -1 -4.49012e-011 -4.87197e-027   
     length 3.21433   
     axis -180 30 90   XYZ
    dof rx
    limits (-10.0 170.0)
  end
  begin
     id 27 
     name rwrist
     direction -1 -4.48899e-011 -5.86351e-027   
     length 1.60716   
     axis 3.17445e-015 -90 -90   XYZ
    dof ry
    limits (-180.0 0.0)
  end
  begin
     id 28
     name rhand
     direction -0.999958 0.00678358 -0.00613214   
     length 0.625487   
     axis 7.48284e-015 -90 -90   XYZ
    dof rx rz
    limits (-90.0 90.0)
           (-45.0 45.0)
  end
  begin
     id 29
     name rfingers
     direction -1 -4.48756e-011 -2.3454e-026   
     length 0.505648   
     axis 1.49657e-014 -90 -90   XYZ
    dof rx
    limits (0.0 90.0)
  end
  begin
     id 30
     name rthumb
     direction -0.708559 0.00587598 0.705627   
     length 0.722099   
     axis -90 -45 -2.85299e-015   XYZ
    dof rx rz
    limits (-45.0 45.0)
           (-45.0 45.0)
  end
:hierarchy
  begin
    root lhipjoint rhipjoint lowerback
    lhipjoint lfemur
    lfemur ltibia
    ltibia lfoot
    lfoot ltoes
    rhipjoint rfemur
    rfemur rtibia
    rtibia rfoot
    rfoot rtoes
    lowerback upperback
    upperback thorax
    thorax lowerneck lclavicle rclavicle
    lowerneck upperneck
    upperneck head
    lclavicle lhumerus
    lhumerus lradius
    lradius lwrist
    lwrist lhand lthumb
    lhand lfingers
    rclavicle rhumerus
    rhumerus rradius
    rradius rwrist
    rwrist rhand rthumb
    rhand rfingers
  end

#!OML:ASF C:\Documents and Settings\Administrator\Desktop\SteveTeapot.ASF
:FULLY-SPECIFIED
:DEGREES
1467
root 1.32416 17.1144 -7.921 29.4099 22.3275 -27.0892
lowerback -7.52079 0.233472 -7.54633
upperback -3.00989 0.836202 1.43777
thorax 0.951092 0.485267 5.81896
lowerneck 0.151928 -8.03129 -5.77849
upperneck -4.41409 -10.4464 20.2046
head 0.136027 -5.45889 6.94451
rclavicle 3.02153e-014 4.45278e-014
rhumerus -94.829 32.6291 -112.418
rradius 105.393
rwrist -82.6152
rhand -24.6999 -72.4522
rfingers 7.12502
rthumb 1.80145 102.424
lclavicle 3.02153e-014 4.45278e-014
lhumerus -4.42727 18.6747 -0.737931
lradius 30.6738
lwrist -6.15632
lhand -20.2186 -13.4036
lfingers 7.12502
lthumb 6.12877 16.4878
rfemur -22.0584 -7.38673 20.9541
rtibia 26.1468
rfoot -27.353 -3.1877
rtoes -25.2706
lfemur -53.0846 -5.8834 15.7695
ltibia 33.3231
lfoot -13.9162 12.2977
ltoes -9.56952
1468
root 1.3337 17.1223 -7.91094 29.4578 21.0518 -25.9088
lowerback -7.59078 0.174864 -8.43885
upperback -2.9626 0.833024 1.11696
thorax 1.02646 0.482011 5.98963
lowerneck -0.279507 -8.0797 -5.74337
upperneck -4.0691 -10.5643 19.9041
head 0.303269 -5.47488 6.80999
rclavicle 3.18055e-015 2.54444e-014
rhumerus -94.3441 32.708 -112.503
rradius 104.647
rwrist -82.2903
rhand -23.4413 -71.1824
rfingers 7.12502
rthumb 3.01691 101.141
lclavicle 3.18055e-015 2.54444e-014
lhumerus -5.78277 18.0395 0.842874
lradius 30.8518
lwrist -6.49721
lhand -19.4986 -14.2543
lfingers 7.12502
lthumb 6.82382 15.6157
rfemur -22.7774 -6.22253 20.1454
rtibia 26.8837
rfoot -26.9001 -1.79702
rtoes -21.4012
lfemur -52.2153 -5.65992 13.8327
ltibia 33.2558
lfoot -13.9781 12.2176
ltoes -10.0371
1469
root 1.35585 17.1219 -7.90071 29.4359 20.0537 -24.919
lowerback -7.81221 0.085703 -8.79892
upperback -2.89602 0.768421 0.82794
thorax 1.22739 0.438122 5.88785
lowerneck -0.635847 -8.0943 -5.8085
upperneck -3.73643 -10.6328 19.6494
head 0.455964 -5.47079 6.71275
rclavicle 2.8625e-014 6.36111e-015
rhumerus -94.0036 32.8878 -112.731
rradius 103.885
rwrist -82.0598
rhand -23.1473 -69.926
rfingers 7.12502
rthumb 3.30082 99.8802
lclavicle 2.8625e-014 6.36111e-015
lhumerus -7.20444 17.0496 2.5255
lradius 31.1
lwrist -6.52689
lhand -19.3884 -15.2346
lfingers 7.12502
lthumb 6.93025 14.632
rfemur -23.5166 -5.89887 19.7425
rtibia 27.7406
rfoot -27.1963 -1.67594
rtoes -23.4945
lfemur -51.475 -5.33304 12.034
ltibia 33.1688
lfoot -14.1581 11.8441
ltoes -9.80577
1470
root 1.38084 17.1187 -7.89421 29.3199 19.0922 -24.224
lowerback -7.99427 0.074354 -8.72369
upperback -2.95649 0.768973 0.503105
thorax 1.27206 0.436479 5.50448
lowerneck -0.621119 -8.13223 -5.79774
upperneck -3.44299 -10.7285 19.3904
head 0.532641 -5.50295 6.6197
rclavicle -4.29375e-014 -2.8625e-014
rhumerus -93.5457 32.8207 -112.87
rradius 103.173
rwrist -81.9841
rhand -23.3477 -68.274
rfingers 7.12502
rthumb 3.10734 98.2311
lclavicle -4.29375e-014 -2.8625e-014
lhumerus -8.61034 15.5558 4.16366
lradius 31.467
lwrist -6.36876
lhand -19.3556 -15.8788
lfingers 7.12502
lthumb 6.96188 13.9867
rfemur -24.3079 -5.61976 19.6834
rtibia 28.591
rfoot -27.3371 -1.18543
rtoes -24.1049
lfemur -50.7973 -4.88339 10.5382
ltibia 33.2202
lfoot -14.4334 11.4819
ltoes -9.3774
1471
root 1.40839 17.116 -7.89502 29.2115 18.11 -23.6954
lowerback -8.0595 0.119801 -8.41161
upperback -3.18355 0.808877 0.1547
thorax 1.0769 0.469223 4.96357
lowerneck -0.291869 -8.12739 -5.66319
upperneck -3.20855 -10.7567 19.1271
head 0.522612 -5.52135 6.52565
rclavicle 2.38542e-014 -1.90833e-014
rhumerus -93.2783 32.5533 -113.144
rradius 102.474
rwrist -81.7594
rhand -23.0786 -66.2871
rfingers 7.12502
rthumb 3.36723 96.2402
lclavicle 2.38542e-014 -1.90833e-014
lhumerus -10.0244 13.765 5.73881
lradius 31.7742
lwrist -5.86811
lhand -18.971 -15.1938
lfingers 7.12502
lthumb 7.33319 14.6591
rfemur -25.2372 -5.21297 19.7699
rtibia 29.333
rfoot -27.0625 -0.0558138
rtoes -21.3191
lfemur -50.2246 -4.33787 9.21137
ltibia 33.425
lfoot -14.6602 11.2289
ltoes -9.68138
1472
root 1.43494 17.1055 -7.9012 29.0777 17.062 -23.1751
lowerback -8.05727 0.171902 -8.15853
upperback -3.42533 0.852631 -0.110666
thorax 0.826853 0.505734 4.54386
lowerneck 0.171404 -8.09439 -5.69053
upperneck -3.18072 -10.7188 18.9203
head 0.435305 -5.52164 6.49003
rclavicle -1.27222e-014 0
rhumerus -93.0949 32.3428 -113.303
rradius 101.801
rwrist -81.3847
rhand -22.6264 -65.2521
rfingers 7.12502
rthumb 3.80393 95.1979
lclavicle -1.27222e-014 0
lhumerus -11.5014 12.5243 7.48676
lradius 31.7645
lwrist -5.76526
lhand -18.7601 -14.515
lfingers 7.12502
lthumb 7.53675 15.3308
rfemur -26.0861 -4.9056 19.9367
rtibia 30.0613
rfoot -26.9018 0.0791668
rtoes -21.0253
lfemur -49.6635 -3.62041 7.79094
ltibia 33.6891
lfoot -14.8607 10.9316
ltoes -10.1586
1473
root 1.4654 17.0957 -7.90144 28.92 15.9894 -22.4803
lowerback -7.97748 0.104523 -8.07504
upperback -3.58635 0.744439 -0.327837
thorax 0.634568 0.461641 4.25824
lowerneck 0.36911 -8.01389 -5.96774
upperneck -3.18681 -10.6149 18.8752
head 0.399729 -5.4761 6.53522
rclavicle 0 -9.54166e-015
rhumerus -92.8165 32.4692 -113.492
rradius 101.015
rwrist -80.9483
rhand -24.1526 -62.5669
rfingers 7.12502
rthumb 2.32998 92.5339
lclavicle 0 -9.54166e-015
lhumerus -13.4066 11.6815 9.18714
lradius 31.7167
lwrist -5.69491
lhand -18.8433 -15.4593
lfingers 7.12502
lthumb 7.4564 14.3893
rfemur -26.7102 -4.87554 20.0258
rtibia 30.6834
rfoot -27.0159 -0.601679
rtoes -23.9267
lfemur -49.0956 -3.17688 6.30855
ltibia 34.0206
lfoot -14.9939 10.9576
ltoes -11.4211
1474
root 1.46137 17.0844 -7.88449 28.6342 14.3893 -22.02
lowerback -7.82982 0.198365 -8.44781
upperback -3.80653 0.872271 -0.54672
thorax 0.300474 0.547932 4.24427
lowerneck 0.372364 -7.9553 -6.05039
upperneck -2.88993 -10.5786 18.8218
head 0.480988 -5.44295 6.52655
rclavicle -6.36111e-015 -7.31528e-014
rhumerus -92.6299 32.5068 -113.937
rradius 100.26
rwrist -80.5627
rhand -21.7017 -63.6765
rfingers 7.12502
rthumb 4.6968 93.6044
lclavicle -6.36111e-015 -7.31528e-014
lhumerus -15.4175 10.3792 10.7686
lradius 31.8875
lwrist -5.27851
lhand -18.9629 -16.9324
lfingers 7.12502
lthumb 7.34098 12.9203
rfemur -27.3897 -3.44094 20.0662
rtibia 31.2881
rfoot -26.9744 -1.25436
rtoes -24.7212
lfemur -48.1878 -2.4035 5.08752
ltibia 34.3492
lfoot -15.2631 11.1532
ltoes -12.1702
1475
root 1.52547 17.0762 -7.8937 28.5994 14.1065 -21.2685
lowerback -8.35218 -0.0533905 -7.87572
upperback -3.65444 0.555175 -0.625381
thorax 0.803107 0.35771 3.82389
lowerneck 0.403149 -7.91808 -6.1944
upperneck -2.9864 -10.5161 18.6075
head 0.435138 -5.41418 6.49046
rclavicle -2.38542e-014 4.45278e-014
rhumerus -92.0212 33.0196 -113.71
rradius 99.5791
rwrist -80.1309
rhand -20.2023 -63.7038
rfingers 7.12502
rthumb 6.14449 93.5947
lclavicle -2.38542e-014 4.45278e-014
lhumerus -17.0908 10.9462 12.8997
lradius 31.4555
lwrist -6.34892
lhand -18.7656 -17.8819
lfingers 7.12502
lthumb 7.53138 11.964
rfemur -28.1436 -4.99726 20.5498
rtibia 31.8356
rfoot -27.103 0.142901
rtoes -24.1752
lfemur -48.1489 -2.15445 3.67534
ltibia 34.6865
lfoot -15.7065 10.4252
ltoes -11.4471
1476
root 1.55814 17.0648 -7.89568 28.6467 13.1406 -20.5342
lowerback -8.67746 -0.188877 -7.95401
upperback -3.77507 0.408001 -0.740134
thorax 0.874686 0.284809 3.73723
lowerneck 0.639892 -7.86006 -6.39475
upperneck -3.08845 -10.4304 18.4848
head 0.358422 -5.38369 6.50264
rclavicle -4.13472e-014 1.27222e-014
rhumerus -91.8788 33.3392 -113.951
rradius 98.7948
rwrist -79.4022
rhand -18.5993 -64.3591
rfingers 7.12502
rthumb 7.69188 94.1992
lclavicle -4.13472e-014 1.27222e-014
lhumerus -18.8433 11.5432 14.8594
lradius 31.0204
lwrist -7.64593
lhand -18.4576 -18.8621
lfingers 7.12502
lthumb 7.82864 10.9729
rfemur -29.1633 -5.44267 20.8394
rtibia 32.449
rfoot -26.9206 0.482534
rtoes -24.3408
lfemur -47.8841 -1.84835 2.42728
ltibia 34.981
lfoot -16.1541 9.98169
ltoes -9.7076
1477
root 1.58594 17.0501 -7.89717 28.5661 12.0388 -19.8866
lowerback -8.74623 -0.303053 -8.01073
upperback -3.92376 0.260718 -0.841535
thorax 0.775021 0.218716 3.64948
lowerneck 0.576452 -7.75457 -6.51201
upperneck -2.98172 -10.3 18.1691
head 0.370771 -5.30627 6.42442
rclavicle 1.11319e-014 -1.59028e-014
rhumerus -91.78 33.6652 -114.229
rradius 98.0056
rwrist -78.4426
rhand -17.8009 -64.0774
rfingers 7.12502
rthumb 8.46248 93.8878
lclavicle 1.11319e-014 -1.59028e-014
lhumerus -20.8704 11.5896 16.7898
lradius 31.1519
lwrist -7.66403
lhand -17.5939 -18.434
lfingers 7.12502
lthumb 8.66223 11.3683
rfemur -30.0303 -5.68361 21.1988
rtibia 33.0468
rfoot -26.7072 0.518876
rtoes -25.3359
lfemur -47.4851 -1.32677 1.14851
ltibia 35.305
lfoot -16.508 9.51683
ltoes -9.52159
1478
root 1.60975 17.0348 -7.89965 28.4851 10.9272 -19.1983
lowerback -8.9475 -0.372055 -8.16803
upperback -3.95419 0.201925 -1.00598
thorax 0.860241 0.187012 3.5614
lowerneck 0.347381 -7.66325 -6.40571
upperneck -2.90997 -10.1764 17.8525
head 0.390187 -5.22867 6.30286
rclavicle -7.95139e-015 -6.36111e-015
rhumerus -91.3537 34.0043 -114.392
rradius 97.0869
rwrist -77.4434
rhand -17.4007 -62.202
rfingers 7.12502
rthumb 8.84865 91.9964
lclavicle -7.95139e-015 -6.36111e-015
lhumerus -22.4542 12.2268 18.815
lradius 31.169
lwrist -7.64138
lhand -16.5362 -16.4226
lfingers 7.12502
lthumb 9.68286 13.3348
rfemur -30.8738 -5.68127 21.4956
rtibia 33.6794
rfoot -26.4888 0.464364
rtoes -26.4984
lfemur -47.0643 -0.649449 -0.236314
ltibia 35.5924
lfoot -16.8816 9.03208
ltoes -11.5903
1479
root 1.63267 17.0169 -7.89713 28.5026 9.90405 -18.402
lowerback -9.30051 -0.456616 -8.33477
upperback -4.02808 0.139896 -1.27071
thorax 0.984108 0.153034 3.37348
lowerneck 0.410898 -7.60876 -6.36176
upperneck -2.97336 -10.0947 17.7982
head 0.345516 -5.19326 6.28692
rclavicle -3.02153e-014 1.90833e-014
rhumerus -91.1061 34.3023 -114.823
rradius 96.0566
rwrist -76.408
rhand -16.2216 -60.9755
rfingers 7.12502
rthumb 9.98636 90.7186
lclavicle -3.02153e-014 1.90833e-014
lhumerus -23.8413 13.1403 20.7678
lradius 31.0242
lwrist -7.9225
lhand -16.0081 -15.443
lfingers 7.12502
lthumb 10.1923 14.2901
rfemur -31.8011 -5.85799 21.7819
rtibia 34.2736
rfoot -26.3884 0.251446
rtoes -27.8787
lfemur -46.7727 0.0970285 -1.72078
ltibia 35.8795
lfoot -17.3386 8.36662
ltoes -14.1603
1480
root 1.66359 17.0039 -7.89146 28.4089 9.00905 -17.7045
lowerback -9.54302 -0.535186 -8.2259
upperback -4.08963 0.0521743 -1.53424
thorax 1.06544 0.104569 3.02931
lowerneck 0.398256 -7.58882 -6.405
upperneck -2.93243 -10.0747 17.8284
head 0.360994 -5.18098 6.30246
rclavicle 1.11319e-014 -8.5875e-014
rhumerus -90.7444 34.4934 -115.002
rradius 95.113
rwrist -74.8725
rhand -13.9851 -61.0027
rfingers 7.12502
rthumb 12.1435 90.6302
lclavicle 1.11319e-014 -8.5875e-014
lhumerus -25.3611 13.801 22.6758
lradius 30.9513
lwrist -7.75573
lhand -15.729 -16.1554
lfingers 7.12502
lthumb 10.4616 13.5643
rfemur -32.6512 -6.56351 22.3405
rtibia 34.8767
rfoot -26.39 0.742697
rtoes -28.1338
lfemur -46.4181 0.672187 -2.9504
ltibia 36.1558
lfoot -18.0552 7.27795
ltoes -14.8694
